<?xml version="1.0" encoding="UTF-8"?><svg id="Layer_1" xmlns="http://www.w3.org/2000/svg" viewBox="0 0 195.5 274.7"><defs><style>.cls-1{fill:#e20613;fill-rule:evenodd;stroke-width:0px;}</style></defs><path class="cls-1" d="M105.7,95.1H.1v84.4h105.6c30.9,0,59.8-16.1,76.1-42.2-16.3-26.1-45.2-42.2-76.1-42.2ZM53,142.7h-31.9v-10.7h31.9v10.7ZM100.8,142.7h-31.9v-10.7h31.9v10.7ZM148.6,142.7h-31.9v-10.7h31.9v10.7Z"/><path class="cls-1" d="M195.5,89.8c0,12.8-2.7,25.3-7.9,36.8-18.4-25.8-48.1-41.6-80-42.2L0,0h105.7c24,0,46.5,9.3,63.5,26.3,17,17,26.3,39.5,26.3,63.5Z"/><path class="cls-1" d="M195.5,184.9c0,24-9.3,46.5-26.3,63.5-17,17-39.5,26.3-63.5,26.3H0l107.6-84.4c31.9-.6,61.6-16.4,80-42.2,5.2,11.5,7.9,24.1,7.9,36.8Z"/></svg>