<?xml version="1.0" encoding="UTF-8"?><svg id="Layer_1" xmlns="http://www.w3.org/2000/svg" viewBox="0 0 586.4 376.5"><defs><style>.cls-1,.cls-2{fill:#e20613;stroke-width:0px;}.cls-2{fill-rule:evenodd;}</style></defs><path class="cls-2" d="M301.2,95.1h-105.6v84.4h105.6c30.9,0,59.8-16.1,76.1-42.2-16.3-26.1-45.2-42.2-76.1-42.2ZM248.4,142.7h-31.9v-10.7h31.9v10.7ZM296.2,142.7h-31.9v-10.7h31.9v10.7ZM344,142.7h-31.9v-10.7h31.9v10.7Z"/><path class="cls-2" d="M390.9,89.8c0,12.8-2.7,25.3-7.9,36.8-18.4-25.8-48.1-41.6-80-42.2L195.4,0h105.7C325.1,0,347.7,9.3,364.6,26.3c17,17,26.3,39.5,26.3,63.5Z"/><path class="cls-2" d="M390.9,184.9c0,24-9.3,46.5-26.3,63.5-17,17-39.5,26.3-63.5,26.3h-105.7l107.6-84.4c31.9-.6,61.6-16.4,80-42.2,5.2,11.5,7.9,24.1,7.9,36.8Z"/><rect class="cls-1" x="60" y="328.6" width="11" height="47.9"/><path class="cls-1" d="M127.3,325.4v-9.2h-44.6s-5.2,0-5.2,0c3,0,5.2,2.3,5.2,4.6,0,0,0,0,0,0v4.8h32l-33.5,42.6v8.4h45.7v-9.4h-32.2l.6-.7,32-41Z"/><path class="cls-1" d="M41.2,344.6c4.2-1.8,7.8-6.2,7.8-13.1s-5.5-15.3-19.2-15.3H0c3,0,5.2,2.3,5.2,4.6v55.8h25.4c12.1,0,20.2-7.2,20.2-17.9s-5.6-12.5-9.6-14ZM29,325.1c5.6,0,9,2.8,9,7.5s-2.8,7.8-9.7,7.8h-12.3v-10.8c0-2.2-2.1-4.6-5.2-4.6h18.2ZM28.5,367.6h-12.5v-13.7c0-1.1-.5-2.3-1.4-3.1-.9-.9-2.2-1.4-3.7-1.4h5.2s12,0,12,0c8,0,11.4,3.5,11.4,9s-3.8,9.3-10.9,9.3Z"/><path class="cls-1" d="M393,316.4h-27.5c3,0,5.1,2.3,5.1,4.5,0,0,0,0,0,0v55.2h21.9c17.5,0,28.3-13.1,28.3-30.6s-11.1-29.2-27.9-29.2ZM392,366.9h-10.4v-36.9c0-2.2-2.1-4.5-5.1-4.5h15.6c12.4,0,17.5,9.6,17.5,20.1s-5.5,21.3-17.5,21.3Z"/><path class="cls-1" d="M305.1,334.5c0-11.2-8.2-18.1-20.2-18.1h-28.6c3,0,5,2.2,5.1,4.4v55.3h11v-18.6c0-2.2-2.1-4.5-5.1-4.5h12.8l10.8,23.1h13.2l-12.2-24c7.8-2.1,13.3-7.9,13.3-17.6ZM283.4,344h-11v-14.1c0-2.2-2.1-4.5-5.1-4.5h16.3c5.9,0,10.4,2.8,10.4,9.3s-4.1,9.3-10.7,9.3Z"/><path class="cls-1" d="M241.4,315.9v35.7c0,11.9-5.1,15.9-12.8,15.9s-13.1-3.5-13.1-15.9v-35.7h-16.1c3,0,5.1,2.3,5.1,4.5,0,0,0,0,0,0v31c0,19.4,11.1,25,23.9,25s24-5.3,24-25.4v-35.2h-11Z"/><path class="cls-1" d="M586.4,325.5v-9.1h-44.2s-5.1,0-5.1,0c3,0,5.1,2.3,5.1,4.5,0,0,0,0,0,0v4.8h31.7l-33.2,42.2v8.3h45.3v-9.3h-31.9l.6-.7,31.7-40.6Z"/><path class="cls-1" d="M504.7,316.4c-4.8,9-12,22.6-14.5,28.5-2.8-6.1-9.6-19.2-14.4-28.5h-15.4c3,0,4.9,4,5.4,4.5,0,0,0,0,0,0l18.3,34.2v21h11v-21.5l21.1-38.3h-11.5Z"/><path class="cls-1" d="M187.8,344.5c4.1-1.7,7.8-6.2,7.8-13s-5.5-15.2-19-15.2h-29.6c3,0,5.1,2.3,5.1,4.5v55.2h25.2c11.9,0,20-7.2,20-17.7s-5.5-12.4-9.5-13.9ZM175.8,325.2c5.6,0,8.9,2.8,8.9,7.5s-2.8,7.7-9.6,7.7h-12.2v-10.7c0-2.2-2.1-4.5-5.1-4.5h18ZM175.3,367.3h-12.4v-13.6c0-1.1-.5-2.3-1.4-3.1-.9-.8-2.2-1.4-3.7-1.4h5.1s11.9,0,11.9,0c7.9,0,11.3,3.5,11.3,8.9s-3.8,9.2-10.8,9.2Z"/><path class="cls-1" d="M343.4,316.4h-19.9c2.6,0,4.6,1.8,5,3.7l-18.9,56.1h10.8s1.8-5.8,4.2-13.5h0c.6-1.6-.9-4.5-4-4.5h5.4s20.9,0,20.9,0c3.2,9.8,5.9,18,5.9,18h11.5l-21-59.8ZM328.8,349.2c3.4-10.9,6.7-21.6,7.3-24.1h.3c.6,2.3,4.1,13.1,7.7,24.1h-15.3Z"/><path class="cls-1" d="M454.7,316.4h-19.9c2.7,0,4.6,1.8,5,3.7l-18.9,56.1h10.8s1.8-5.8,4.2-13.5c0,0,0,0,0,0,.6-1.6-.9-4.5-3.9-4.5h5.4s20.9,0,20.9,0c3.2,9.8,5.9,18,5.9,18h11.5l-21-59.8ZM440.1,349.2c3.4-10.9,6.7-21.6,7.3-24.1h.3c.6,2.3,4.1,13.1,7.7,24.1h-15.3Z"/><rect class="cls-1" x="521.2" y="316.4" width="10.9" height="59.7"/><path class="cls-1" d="M71.1,316.2v1.1c0,4.3-3.5,7.7-7.7,7.7h-3.3v-8.9h11Z"/></svg>