<?xml version="1.0" encoding="UTF-8"?><svg id="Layer_1" xmlns="http://www.w3.org/2000/svg" viewBox="0 0 975.9 178.7"><defs><style>.cls-1,.cls-2{fill:#e20613;stroke-width:0px;}.cls-2{fill-rule:evenodd;}</style></defs><path class="cls-2" d="M68.8,61.9H0v54.9h68.7c20.1,0,38.9-10.5,49.5-27.5-10.6-17-29.4-27.5-49.5-27.5ZM34.5,92.9H13.7v-7h20.7v7ZM65.6,92.9h-20.7v-7h20.7v7ZM96.7,92.9h-20.7v-7h20.7v7Z"/><path class="cls-2" d="M127.2,58.4c0,8.3-1.8,16.5-5.1,24-12-16.8-31.3-27.1-52.1-27.5L0,0h68.8C84.4,0,99.1,6.1,110.1,17.1c11,11,17.1,25.7,17.1,41.3Z"/><path class="cls-2" d="M127.2,120.3c0,15.6-6.1,30.3-17.1,41.3-11,11-25.7,17.1-41.3,17.1H0l70-54.9c20.7-.4,40.1-10.7,52.1-27.5,3.4,7.5,5.1,15.7,5.1,24Z"/><rect class="cls-1" x="240" y="64.7" width="15.4" height="67"/><path class="cls-1" d="M334,60.3v-12.9h-62.3s-7.2,0-7.2,0c4.3,0,7.2,3.3,7.2,6.4,0,0,0,0,0,0v6.7h44.7l-46.9,59.5v11.7h63.9v-13.1h-45.1l.9-1,44.8-57.3Z"/><path class="cls-1" d="M213.6,87.1c5.8-2.5,10.9-8.7,10.9-18.3s-7.7-21.4-26.8-21.4h-41.7c4.3,0,7.2,3.2,7.2,6.4v78h35.5c16.9,0,28.2-10.1,28.2-25.1s-7.8-17.5-13.4-19.5ZM196.6,59.8c7.8,0,12.6,3.9,12.6,10.5s-3.9,10.9-13.5,10.9h-17.3v-15.1c0-3.1-3-6.4-7.2-6.4h25.4ZM196,119.3h-17.5v-19.2c0-1.6-.7-3.2-2-4.4-1.3-1.2-3.1-2-5.2-2h7.2s16.7,0,16.7,0c11.2,0,16,5,16,12.6s-5.3,13-15.2,13Z"/><path class="cls-1" d="M705.6,47.6h-38.4c4.2,0,7.2,3.2,7.2,6.3,0,0,0,0,0,0v77.2h30.6c24.5,0,39.6-18.3,39.6-42.8s-15.5-40.8-39-40.8ZM704.2,118.3h-14.6v-51.6c0-3.1-3-6.3-7.1-6.3h21.8c17.3,0,24.4,13.5,24.4,28.1s-7.7,29.8-24.5,29.8Z"/><path class="cls-1" d="M582.7,72.9c0-15.7-11.5-25.3-28.3-25.3h-39.9c4.1,0,7,3.1,7.1,6.2v77.3h15.3v-26c0-3.1-3-6.2-7.1-6.2h17.8l15.1,32.3h18.5l-17.1-33.6c10.9-3,18.5-11.1,18.5-24.6ZM552.3,86.2h-15.3v-19.7c0-3.1-3-6.2-7.1-6.2h22.9c8.2,0,14.5,3.9,14.5,13s-5.7,13-14.9,13Z"/><path class="cls-1" d="M493.6,47v49.9c0,16.6-7.1,22.3-17.9,22.3s-18.3-5-18.3-22.3v-49.9h-22.5c4.2,0,7.1,3.2,7.1,6.3,0,0,0,0,0,0v43.3c0,27.1,15.5,35,33.4,35s33.5-7.5,33.5-35.5v-49.2h-15.3Z"/><path class="cls-1" d="M975.9,60.4v-12.8h-61.7s-7.2,0-7.2,0c4.2,0,7.1,3.2,7.1,6.3,0,0,0,0,0,0v6.6h44.3l-46.4,58.9v11.6h63.3v-13h-44.6l.8-1,44.4-56.7Z"/><path class="cls-1" d="M861.7,47.6c-6.7,12.6-16.7,31.6-20.3,39.8-4-8.5-13.4-26.9-20.1-39.8h-21.5c4.2,0,6.9,5.6,7.5,6.3,0,0,0,0,0,0l25.6,47.8v29.4h15.3v-30.1l29.5-53.5h-16.1Z"/><path class="cls-1" d="M418.6,86.9c5.8-2.4,10.8-8.6,10.8-18.1s-7.7-21.2-26.5-21.2h-41.3c4.2,0,7.2,3.2,7.2,6.3v77.2h35.2c16.7,0,27.9-10,27.9-24.8s-7.7-17.4-13.3-19.4ZM401.8,59.9c7.8,0,12.5,3.9,12.5,10.4s-3.8,10.8-13.4,10.8h-17.1v-14.9c0-3.1-3-6.3-7.2-6.3h25.2ZM401.2,118.8h-17.4v-19c0-1.6-.7-3.2-2-4.3-1.2-1.2-3-2-5.2-2h7.2s16.6,0,16.6,0c11.1,0,15.8,4.9,15.8,12.4s-5.3,12.9-15.1,12.9Z"/><path class="cls-1" d="M636.2,47.6h-27.9c3.7,0,6.4,2.5,7,5.2l-26.4,78.4h15.1s2.5-8.1,5.9-18.9h0c.8-2.3-1.3-6.3-5.5-6.3h7.6s29.3,0,29.3,0c4.5,13.8,8.3,25.2,8.3,25.2h16.1l-29.4-83.5ZM615.7,93.6c4.7-15.3,9.3-30.1,10.2-33.7h.4c.9,3.2,5.7,18.3,10.7,33.7h-21.4Z"/><path class="cls-1" d="M791.8,47.6h-27.9c3.7,0,6.4,2.5,7,5.2l-26.4,78.4h15.1s2.6-8.1,5.9-18.9c0,0,0,0,0,0,.8-2.3-1.3-6.3-5.5-6.3h7.5s29.3,0,29.3,0c4.5,13.8,8.3,25.2,8.3,25.2h16.1l-29.4-83.5ZM771.4,93.6c4.7-15.3,9.3-30.1,10.2-33.7h.4c.9,3.2,5.7,18.3,10.7,33.7h-21.4Z"/><rect class="cls-1" x="884.7" y="47.6" width="15.3" height="83.5"/><path class="cls-1" d="M255.4,47.4v1.6c0,6-4.8,10.8-10.8,10.8h-4.6v-12.4h15.4Z"/></svg>