<svg version="1.1" xmlns="http://www.w3.org/2000/svg" xmlns:xlink="http://www.w3.org/1999/xlink" x="0px" y="0px" width="32" height="32" viewBox="0 0 612 405.6" style="enable-background:new 0 0 612 405.6;" xml:space="preserve">
                    <path d="M581.4,301.6c9.9,0,18,7,18,15.7c0,8.7-8.1,15.7-18,15.7h-24.1c-0.6,0,0.1-4-1.8-9.8 c-2.2-6.4-4.6-12.6-8.4-17.9c-0.1-1-2.4-2.2-2.4-3.7H581.4L581.4,301.6z M555.4,323.3c1.3,4.8,2,9.8,2,15 c0,31.9-25.8,57.7-57.6,57.7c-31.8,0-57.6-25.8-57.6-57.7c0-3.1,0.3-6.2,0.7-9.2c1.1-2.6,1-6.5,2.5-9.9c3.3-7.6,3.3-7.6,7.2-14 c9.4-15.5,27.7-24.6,47.2-24.6c19.6,0,37.5,9.4,47.3,24.7c2.5,3.9,2.5,5.4,6.2,11.6C554.5,319.1,554.5,321.5,555.4,323.3 L555.4,323.3z M499.7,312c-14.5,0-26.2,11.8-26.2,26.3s11.7,26.3,26.2,26.3c14.5,0,26.2-11.8,26.2-26.3S514.2,312,499.7,312 L499.7,312z M441.8,337.1l-160,0.1c-1.8,0-3.6-0.3-5.2-0.7l-186,58.8c-9,2.8-18.8-2.2-21.7-11.2c-2.9-9,2-18.7,11-21.6l56.5-17.9 c-15.2-3.4-28.8-11.9-38.7-24l-7.2,2.3c-27.5,8.7-56.6-7.6-65.4-35.2l-10.5-32.3c-6.5-19.5-1-40.9,14-54.7l31.3-28.7l16-64.1 c5.3-21.4,21.2-38.6,42.3-45.2l129.3-40.9c19-5.8,39.9-2.7,56.5,8.9l61.5,43.2l78.8-3.2c23.5-0.9,45.2,14,52.7,36.6l9.2,28.4 c8.9,28-6.2,57.5-33.9,66.7l-1.6,0.5c-0.8,15.4-7,30.3-17.3,41.7l93.2-29.4l-17.1-52.5c-2.9-9,2-18.7,11-21.6 c9-2.8,18.8,2.2,21.7,11.2l22.4,68.9c2.9,9-2,18.7-11,21.6l-192.1,60.7h71.1c0,0.7,0,1.4,0,2c-4.9,7-8.3,15.1-9.7,23.8 c-2.1,4.8-1.7,8-1.6,8H441.8z M120.2,290.3c5.2,15.9,22.3,24.8,38.2,19.8c15.9-5,24.6-22.1,19.4-38 c-5.2-15.9-22.3-24.8-38.2-19.8C123.8,257.3,115,274.4,120.2,290.3L120.2,290.3z M462.3,168.4c9.3-3.1,14.2-13,11.3-22.4 l-9.2-28.4c-2.7-7.7-10.2-12.9-18.3-12.5l-84.7,3.2c-3.8,0.1-7.5-0.9-10.6-3.2l-66.2-46.4c-7.7-5.3-17.4-6.8-26.3-4.2L128.9,95.5 c-9.7,3.1-17.2,11-19.5,21l-17.2,69.2c-0.7,3.3-2.5,6.2-5,8.5l-35.4,32.2c-5.1,4.7-6.9,12-4.6,18.6l10.5,32.3 c3.1,9.5,12.7,15.7,22.2,12.7l4.9-1.6c-3.7-31.4,14.6-58.9,44.4-68.3c29.8-9.4,61.1,2.4,76.4,30.1l135.9-42.9 c-3.9-30.8,14.9-59.7,44.5-68.7C415,129.2,446.9,141.8,462.3,168.4L462.3,168.4z M415,229c15.9-5,24.6-22.1,19.4-38 s-22.3-24.8-38.2-19.8c-15.9,5-24.6,22.1-19.4,38C381.9,225.1,399.1,234,415,229L415,229z M393,263.4 c-15.2-3.4-28.8-11.9-38.7-24L214,283.8c-0.8,15.4-7,30.3-17.3,41.7L393,263.4L393,263.4z"></path>
                  </svg>
